<?xml version="1.0" encoding="utf-8"?>
<!-- Generator: Adobe Illustrator 23.0.1, SVG Export Plug-In . SVG Version: 6.00 Build 0)  -->
<svg version="1.1" id="Cute-cile_copy_xA0_Image_1_"
	 xmlns="http://www.w3.org/2000/svg" xmlns:xlink="http://www.w3.org/1999/xlink" x="0px" y="0px" viewBox="0 0 450 477.5"
	 style="enable-background:new 0 0 450 477.5;" xml:space="preserve">
<style type="text/css">
	.st0{fill:#C90202;}
	.st1{fill:url(#SVGID_1_);}
	.st2{fill:url(#SVGID_2_);}
	.st3{opacity:0.25;}
	.st4{fill:#FFFFFF;}
	.st5{fill:url(#SVGID_3_);}
	.st6{fill:url(#SVGID_4_);}
	.st7{opacity:0.3;}
</style>
<g>
	<g>
		<path class="st0" d="M81.74,220.97c0-0.6,0.45-1.35,1.05-1.8c1.35-1.2,7.05-4.95,15-4.95c5.85,0,12.3,1.35,18.15,3.15
			c6-3,11.7-4.35,17.7-4.2c7.95,0.15,21.15,3.15,21.15,13.2c0,6-5.55,10.05-10.05,10.05c-8.4,0-16.5-5.1-23.7-8.4
			c-0.9-0.45-1.8-0.9-2.7-1.2c-8.85,4.65-15.6,15.75-15.6,26.1c0,3.85,0.95,7.28,2.61,10.19c5.67,9.95,18.27,10.48,19.29,10.51
			c3.8,0.11,6.85-0.74,8.67-1.37c6.42-1.24,9.74-1.53,9.95-0.85c0.08,0.26-0.3,0.66-1.13,1.21c-0.8,0.58-1.97,1.37-3.44,2.18
			c-2.19,1.21-9.54,5.24-18.7,4.24c-8.92-0.98-17.58-6.48-21.91-14.76c-2.01-3.84-3.14-8.24-3.14-12.99
			c0-10.95,4.95-22.05,13.2-28.65c-4.95-1.8-9.75-2.85-14.25-2.85s-7.05,1.5-10.5,2.55C82.49,222.62,81.74,221.87,81.74,220.97z
			 M132.59,223.22c4.8,1.65,9,3.15,11.85,3.15c0.15,0,0.15,0,0.3,0c-0.6-1.05-1.95-1.65-3.15-2.1
			C139.04,223.37,136.04,223.22,132.59,223.22z"/>
		<path class="st0" d="M182.54,258.17c0.9,0.6-1.05,4.05-1.05,4.05c-4.8,7.8-8.7,9.15-12.15,8.85c-1.8-0.15-3.9-1.2-4.65-3.15
			c-3.3,2.7-6.6,3.3-9,3.15c-8.4-0.6-4.35-13.95-2.25-18.9c4.8-11.25,9.75-5.25,7.95,0c-4.65,13.05-4.35,16.05-1.2,16.05
			c1.35,0,2.7-0.75,3.9-1.65c-0.75-2.55-0.45-6.15,2.1-12.15c4.8-11.25,9.9-5.1,8.1,0c-4.65,13.05-3.6,13.8-1.2,13.8
			c3.3,0,7.8-8.7,7.8-8.7C181.64,257.72,182.54,258.17,182.54,258.17z"/>
		<path class="st0" d="M190.19,241.97c-1.95,5.25-8.1,26.1-2.1,24.75c3.6-0.75,6.6-6.15,7.5-7.65c0.3-0.45,0.6-0.9,1.05-0.9
			c1.2,0,0.15,2.1,0.15,2.1c-4.65,8.85-9.15,11.1-12.3,11.1c-5.85,0.15-6.6-2.4-6.6-2.4c-2.55-4.65-0.45-18.15,3.15-29.4
			c-8.55-2.7-15.15-5.4-15.75-0.9c-1.05,0.6-2.4-3,1.2-4.8c3.3-1.8,9.6-0.75,16.65,0c1.95-4.5,4.05-8.25,6.15-9.9
			c3.9-3.45,10.2-3.3,14.25,0.45c1.95,0.15,6.9-0.6,8.55-2.25c0.9-0.75,0.9,1.65-1.35,2.55c-0.75,0.3-3.15,0.9-6,1.5
			c0.6,1.65-0.75,4.35-3.3,4.05c-2.1-0.15-3.3-2.4-2.25-4.05c0.3-0.45,0.9-0.9,1.5-1.2c-2.1-1.35-3.9,0.45-4.95,2.1
			c-1.5,2.4-2.25,5.1-3.3,7.65c9.9,0.6,18.6-1.95,19.95-2.7c1.5-0.6,4.35-1.35,5.1,4.2C218.54,240.77,203.09,245.87,190.19,241.97z
			 M202.34,227.12"/>
		<path class="st0" d="M200.84,271.22c-6.75,0.6-7.65-5.7-7.65-5.7c-1.8-10.8,7.8-18.3,12.6-19.5c3-0.75,6.9-0.3,8.7,3
			c1.2,2.25,0.9,5.25-0.75,7.65c-4.05,5.7-8.7,5.55-11.85,4.35c-1.65,12.15,12.15,2.85,15.45-2.1c0.9-0.9,2.1-0.75,1.2,0.9
			C215.24,265.82,207.74,270.62,200.84,271.22z M202.19,259.67c1.8,0.45,3.45,0.3,4.65-0.15c7.5-2.55,4.95-11.85,0.45-9.15
			C204.29,252.17,203.24,256.37,202.19,259.67z"/>
		<path class="st0" d="M257.23,246.92c-0.45,4.95-29.25-0.75-29.55-1.95c-0.15-0.9,0.75-1.5,2.1-1.5c3.45-0.45,20.55-0.15,24.3-0.15
			C255.88,243.32,257.53,245.27,257.23,246.92z"/>
		<path class="st0" d="M265.48,271.22c-2.1-0.15-3.3-1.35-3.3-1.35c-3-2.85-3.75-8.25,0.3-17.7c4.8-11.25,10.65-5.25,8.85,0
			c-4.65,13.05-4.65,16.2-2.55,16.2c4.2,0,8.4-8.7,8.4-8.7c0.9-2.1,1.95-1.35,1.95-1.35c0.75,0.75-1.35,4.2-1.35,4.2
			C272.98,270.17,268.93,271.52,265.48,271.22z M275.53,238.82c-1.35,3.75-4.2,6.15-6.3,5.4c-2.1-0.75-2.7-4.35-1.5-8.1
			c1.35-3.6,4.2-6,6.3-5.25C276.13,231.62,276.73,235.22,275.53,238.82z"/>
		<path class="st0" d="M285.73,246.17c3.3-0.9,6.75-0.15,8.7,3c0.9,1.95-0.9,3.6-2.25,3.75c-1.05,0-1.35-0.9-1.35-1.05
			c-2.25-5.25-6.6,1.5-7.5,4.2c-5.25,13.65,4.5,10.65,4.5,10.65c1.65-0.6,4.5-1.2,9.3-7.8c0.75-1.05,1.8,0.15,1.2,1.05
			c-3.3,5.1-10.8,10.95-17.7,11.25c-6.6,0.6-7.5-5.55-7.5-5.55C271.63,254.12,280.78,247.22,285.73,246.17z"/>
		<path class="st0" d="M301.63,235.37c-1.5-0.45-2.85-0.9-4.05-0.9c-4.5-0.15-4.35,2.4-4.65,2.1c-0.45-0.15-0.75-1.05-0.3-1.8
			c1.65-3.15,6.75-2.25,9.9-1.5c1.2-2.85,2.7-5.25,4.2-7.2c2.25-3,7.35-6.9,10.65-2.55c2.4,3.3,2.85,10.2-0.15,13.5
			c-2.25,1.8-4.5,1.5-6.45,1.2c-5.55,16.8-6.45,29.4-3.3,28.65c1.8-0.3,5.1-6,6-7.65c0.15-0.45,0.6-0.9,1.05-0.9
			c1.2,0,0.15,2.1,0.15,2.1c-4.65,8.85-7.65,10.8-10.8,10.8c-5.85,0-6.75-2.1-6.75-2.1C293.68,261.62,298.48,243.47,301.63,235.37z
			 M311.68,235.37c4.5,0.6,4.2-3.6,3.75-6.15c-0.3-0.6-0.75-0.9-1.35-0.3C313.18,230.72,312.58,232.52,311.68,235.37z"/>
		<path class="st0" d="M319.33,271.22c-6.75,0.6-7.65-5.7-7.65-5.7c-1.8-10.8,7.8-18.3,12.6-19.5c3-0.75,6.9-0.3,8.7,3
			c1.2,2.25,0.9,5.25-0.75,7.65c-4.05,5.7-8.7,5.55-11.85,4.35c-1.65,12.15,12.15,2.85,15.45-2.1c0.9-0.9,2.1-0.75,1.2,0.9
			C333.73,265.82,326.23,270.62,319.33,271.22z M320.68,259.67c1.8,0.45,3.45,0.3,4.65-0.15c7.5-2.55,4.95-11.85,0.45-9.15
			C322.78,252.17,321.73,256.37,320.68,259.67z"/>
	</g>
</g>
<path class="st0" d="M162.14,280.8c4.53,2.51,5.54,3.85,9.45,5.86c5.14,2.64,9.63,3.33,13.68,3.91c4.05,0.58,16.59,1.97,38.77-4.56
	c12.34-3.63,10.65-4.71,16.62-5.86c21.14-4.1,31.82,11.45,50.82,13.68c30.04,3.53,56.22-29.13,55.06-30.95
	c-1.3-2.03-40.52,28.27-62.97,18.14c-2.38-1.07-9.79-4.96-21.08-8.04c-2.35-0.64-8.69-2.38-14.25-2.94
	c-19.41-1.97-24.56,10.82-48.63,13.37c-9.33,0.99-17.71,1.87-26.27-2.08c-2.77-1.28-8.13-4.26-16.41-7.04
	c-0.82-0.27-1.97-0.65-3.41-1.05c-1.21-0.34-2.96-0.79-4.95-1.18c-3.88-0.76-5.82-1.14-7.62-0.97c-3.37,0.31-5.78,1.9-7.56,3.04
	c-1.16,0.74-4.63,2.96-4.28,3.79c0.56,1.31,9.31-4.23,20-2.32C154.36,276.52,158.99,279.05,162.14,280.8z"/>
<path class="st0" d="M145.69,273.63"/>
<g>
	
		<linearGradient id="SVGID_1_" gradientUnits="userSpaceOnUse" x1="959.4015" y1="-246.2278" x2="959.4015" y2="-248.8684" gradientTransform="matrix(0.7033 0.7109 0.7109 -0.7033 -202.76 -650.0954)">
		<stop  offset="0" style="stop-color:#030202"/>
		<stop  offset="0.75" style="stop-color:#1B130E"/>
		<stop  offset="1" style="stop-color:#7D6F63"/>
	</linearGradient>
	<path class="st1" d="M302.15,212.32c0.52-0.51-1.83-3.73-5.25-7.19s-6.61-5.84-7.13-5.33c-0.52,0.51,1.83,3.73,5.25,7.19
		C298.44,210.45,301.63,212.83,302.15,212.32z"/>
	
		<linearGradient id="SVGID_2_" gradientUnits="userSpaceOnUse" x1="950.5997" y1="256.059" x2="968.2032" y2="256.059" gradientTransform="matrix(0.7033 0.7109 -0.7109 0.7033 -184.6313 -668.0286)">
		<stop  offset="0" style="stop-color:#0B0A09"/>
		<stop  offset="0.1" style="stop-color:#3F352D"/>
		<stop  offset="0.2" style="stop-color:#030202"/>
		<stop  offset="0.35" style="stop-color:#1B130E"/>
		<stop  offset="0.45" style="stop-color:#7D6F63"/>
		<stop  offset="0.55" style="stop-color:#EAD5C3"/>
		<stop  offset="0.75" style="stop-color:#141112"/>
		<stop  offset="0.85" style="stop-color:#030202"/>
		<stop  offset="0.95" style="stop-color:#261B11"/>
		<stop  offset="1" style="stop-color:#110B0A"/>
	</linearGradient>
	<path class="st2" d="M324.39,187.26c-2.56-3.63-5.71-6.81-9.31-9.41c-1-0.72-2.54-0.56-3.4,0.29c-7.3,7.22-14.6,14.44-21.9,21.66
		c0.52-0.51,3.71,1.87,7.13,5.33c3.42,3.46,5.77,6.67,5.25,7.19c7.3-7.22,14.6-14.44,21.9-21.66
		C324.91,189.8,325.09,188.26,324.39,187.26z"/>
	<path class="st3" d="M324.39,187.26c-2.56-3.63-5.71-6.81-9.31-9.41c-1-0.72-2.54-0.56-3.4,0.29c-0.31,0.31-0.63,0.62-0.94,0.93
		c0.86-0.85,2.41-1.01,3.4-0.29c3.6,2.6,6.75,5.78,9.31,9.41c0.71,1,0.53,2.55-0.33,3.4c0.31-0.31,0.63-0.62,0.94-0.93
		C324.91,189.8,325.09,188.26,324.39,187.26z"/>
	<path class="st3" d="M324.39,187.26c-2.56-3.63-5.71-6.81-9.31-9.41c-1-0.72-2.54-0.56-3.4,0.29c-0.21,0.21-0.42,0.41-0.63,0.62
		c0.86-0.85,2.41-1.01,3.4-0.29c3.6,2.6,6.75,5.78,9.31,9.41c0.71,1,0.53,2.55-0.33,3.4c0.21-0.21,0.42-0.41,0.63-0.62
		C324.91,189.8,325.09,188.26,324.39,187.26z"/>
	<path class="st3" d="M324.39,187.26c-2.56-3.63-5.71-6.81-9.31-9.41c-1-0.72-2.54-0.56-3.4,0.29c-0.1,0.1-0.21,0.21-0.31,0.31
		c0.86-0.85,2.41-1.01,3.4-0.29c3.6,2.6,6.75,5.78,9.31,9.41c0.71,1,0.53,2.55-0.33,3.4c0.1-0.1,0.21-0.21,0.31-0.31
		C324.91,189.8,325.09,188.26,324.39,187.26z"/>
	<path class="st4" d="M298.47,203.59c-3.42-3.46-6.61-5.84-7.13-5.33c-0.1,0.1-0.21,0.21-0.31,0.31c0.52-0.51,3.71,1.87,7.13,5.33
		c3.42,3.46,5.77,6.67,5.25,7.19c0.1-0.1,0.21-0.21,0.31-0.31C304.24,210.26,301.88,207.04,298.47,203.59z"/>
	<path class="st4" d="M297.84,204.21c-3.42-3.46-6.61-5.84-7.13-5.33c-0.1,0.1-0.21,0.21-0.31,0.31c0.52-0.51,3.71,1.87,7.13,5.33
		c3.42,3.46,5.77,6.67,5.25,7.19c0.1-0.1,0.21-0.21,0.31-0.31C303.61,210.88,301.26,207.66,297.84,204.21z"/>
	<path class="st4" d="M297.21,204.82c-3.42-3.46-6.61-5.84-7.13-5.33c-0.1,0.1-0.21,0.21-0.31,0.31c0.52-0.51,3.71,1.87,7.13,5.33
		c3.42,3.46,5.77,6.67,5.25,7.19c0.1-0.1,0.21-0.21,0.31-0.31C302.98,211.5,300.63,208.28,297.21,204.82z"/>
	
		<linearGradient id="SVGID_3_" gradientUnits="userSpaceOnUse" x1="958.0812" y1="282.73" x2="960.7217" y2="282.73" gradientTransform="matrix(0.7033 0.7109 -0.7109 0.7033 -184.6313 -668.0286)">
		<stop  offset="0" style="stop-color:#030202"/>
		<stop  offset="0.35" style="stop-color:#110B0A"/>
		<stop  offset="0.6" style="stop-color:#EAD5C3"/>
		<stop  offset="1" style="stop-color:#030202"/>
	</linearGradient>
	<path class="st5" d="M281.57,220.93l-0.63-0.64c-0.17-0.17-0.17-0.44,0-0.62l15.03-15.48l1.86,1.88l-15.64,14.86
		C282.02,221.1,281.74,221.1,281.57,220.93z"/>
	
		<linearGradient id="SVGID_4_" gradientUnits="userSpaceOnUse" x1="957.6411" y1="299.2333" x2="961.1618" y2="299.2333" gradientTransform="matrix(0.7033 0.7109 -0.7109 0.7033 -184.6313 -668.0286)">
		<stop  offset="0" style="stop-color:#050100"/>
		<stop  offset="0.6" style="stop-color:#2D1206"/>
		<stop  offset="1" style="stop-color:#050100"/>
	</linearGradient>
	<path class="st6" d="M274.67,229.6l-2.48-2.5l8.13-6.85c0.18-0.15,0.44-0.14,0.6,0.03l0.67,0.67c0.16,0.16,0.17,0.42,0.02,0.6
		L274.67,229.6z"/>
	<path class="st7" d="M289.5,200.54c1.26,0.52,3.9,2.65,6.7,5.47s4.89,5.49,5.4,6.76c0.34,0.14,0.58,0.17,0.7,0.06
		c0.54-0.53-1.9-3.87-5.45-7.45c-3.55-3.58-6.86-6.06-7.39-5.53C289.33,199.95,289.36,200.2,289.5,200.54z"/>
	<path class="st7" d="M289.38,200.1c0.97,0.06,3.96,2.38,7.14,5.59c3.18,3.22,5.46,6.22,5.51,7.2c0.11,0.01,0.2-0.01,0.26-0.06
		c0.54-0.53-1.9-3.87-5.45-7.45c-3.55-3.58-6.86-6.06-7.39-5.53C289.39,199.89,289.38,199.99,289.38,200.1z"/>
</g>
<path class="st0" d="M277.31,224.35c-0.54-0.49-1.82,0.14-2.29,0.37c-1.64,0.8-2.82,2.38-2.82,2.38l0,0
	c0.06,1.73,0.06,1.74,0.06,1.74c0.08,2.8-0.84,4.29-0.16,4.89c0.5,0.44,1.74,0.14,2.12-0.49c0.36-0.61-0.46-1.21-0.18-2.36
	c0.11-0.45,0.33-0.8,0.64-1.27c0.47-0.73,0.69-0.75,0.92-1.33c0.16-0.4,0.15-0.63,0.41-0.9c0.26-0.27,0.5-0.28,0.73-0.41
	C277.53,226.52,277.87,224.87,277.31,224.35z"/>
</svg>
