<svg xmlns="http://www.w3.org/2000/svg" viewBox="0 0 50.28 50.28"><defs><style>.a{fill:#fff;stroke:#231f20;stroke-miterlimit:10;stroke-width:0.28px;}.b{fill:#231f20;}</style></defs><title>Asset 2</title><circle class="a" cx="25.14" cy="25.14" r="25"/><path class="b" d="M17.17,9.54a5.37,5.37,0,0,1,1,.15,5.69,5.69,0,0,1,1.36.51l.91,10.1a6,6,0,0,1-3.06,1.22A18,18,0,0,0,27.7,33.34a6,6,0,0,1,1.62-2.87l9.89,2.26a6,6,0,0,1,.32,1.41,5.56,5.56,0,0,1,0,1,6,6,0,0,1-6.4,5.59,24,24,0,0,1-22.37-25.6A6,6,0,0,1,17.17,9.54Z"/></svg>