<svg xmlns="http://www.w3.org/2000/svg" xmlns:xlink="http://www.w3.org/1999/xlink" viewBox="0 0 783.3 445.6"><defs><style>.cls-1{fill:url(#New_Gradient_Swatch_7);}.cls-2{fill:url(#linear-gradient);}.cls-3{fill:url(#linear-gradient-2);}.cls-4{fill:url(#linear-gradient-3);}.cls-5{fill:url(#linear-gradient-4);}.cls-6{isolation:isolate;}.cls-7{fill:url(#New_Gradient_Swatch_6);}.cls-8{fill:url(#New_Gradient_Swatch_6-2);}.cls-9{fill:url(#New_Gradient_Swatch_6-3);}.cls-10{fill:url(#New_Gradient_Swatch_6-4);}.cls-11{fill:url(#linear-gradient-5);}.cls-12{fill:url(#linear-gradient-6);}.cls-13{fill:url(#New_Gradient_Swatch_6-5);}.cls-14{fill:url(#New_Gradient_Swatch_8);}.cls-15{fill:#a10024;}</style><linearGradient id="New_Gradient_Swatch_7" x1="897.17" y1="704.21" x2="897.17" y2="758.26" gradientUnits="userSpaceOnUse"><stop offset="0" stop-color="#a10024"/><stop offset="0.27" stop-color="#8d001e"/><stop offset="0.73" stop-color="#710014"/><stop offset="1" stop-color="#601"/></linearGradient><linearGradient id="linear-gradient" x1="722.53" y1="558.73" x2="722.53" y2="690.35" gradientUnits="userSpaceOnUse"><stop offset="0" stop-color="#4f4e53"/><stop offset="0.35" stop-color="#515056"/><stop offset="0.56" stop-color="#5a595e"/><stop offset="0.73" stop-color="#68676c"/><stop offset="0.88" stop-color="#7c7b80"/><stop offset="1" stop-color="#919096"/></linearGradient><linearGradient id="linear-gradient-2" x1="851.68" y1="558.73" x2="851.68" y2="690.35" xlink:href="#linear-gradient"/><linearGradient id="linear-gradient-3" x1="972.92" y1="558.73" x2="972.92" y2="690.35" xlink:href="#linear-gradient"/><linearGradient id="linear-gradient-4" x1="1094.53" y1="558.73" x2="1094.53" y2="690.35" xlink:href="#linear-gradient"/><linearGradient id="New_Gradient_Swatch_6" x1="128.75" y1="215.5" x2="128.75" y2="181" gradientUnits="userSpaceOnUse"><stop offset="0" stop-color="#a10024"/><stop offset="1" stop-color="#601"/></linearGradient><linearGradient id="New_Gradient_Swatch_6-2" x1="173.75" y1="215.5" x2="173.75" y2="181" xlink:href="#New_Gradient_Swatch_6"/><linearGradient id="New_Gradient_Swatch_6-3" x1="128.75" y1="170" x2="128.75" y2="135.5" xlink:href="#New_Gradient_Swatch_6"/><linearGradient id="New_Gradient_Swatch_6-4" x1="173.75" y1="170" x2="173.75" y2="135.5" xlink:href="#New_Gradient_Swatch_6"/><linearGradient id="linear-gradient-5" x1="419.2" y1="744.29" x2="542.35" y2="389.83" gradientUnits="userSpaceOnUse"><stop offset="0" stop-color="#4f4e53"/><stop offset="1" stop-color="#919096"/></linearGradient><linearGradient id="linear-gradient-6" x1="543.82" y1="472.11" x2="613.54" y2="756.2" gradientUnits="userSpaceOnUse"><stop offset="0" stop-color="#4f4e53"/><stop offset="0.07" stop-color="#605f64"/><stop offset="0.22" stop-color="#7b7a7f"/><stop offset="0.35" stop-color="#8b8a90"/><stop offset="0.45" stop-color="#919096"/><stop offset="0.47" stop-color="#87868c"/><stop offset="0.56" stop-color="#68676d"/><stop offset="0.63" stop-color="#56555a"/><stop offset="0.68" stop-color="#4f4e53"/><stop offset="0.78" stop-color="#646369"/><stop offset="1" stop-color="#919096"/></linearGradient><linearGradient id="New_Gradient_Swatch_6-5" x1="401.43" y1="434.5" x2="535.43" y2="434.5" xlink:href="#New_Gradient_Swatch_6"/><linearGradient id="New_Gradient_Swatch_8" x1="543.5" y1="434.5" x2="695.5" y2="434.5" xlink:href="#New_Gradient_Swatch_6"/></defs><title>Red and Grey Inc Desc</title><g id="KEY"><g id="KEY_MAIN" data-name="KEY MAIN"><path class="cls-1" d="M1164.41,717,670.5,717v-7l487.08,0-7.32-7.52H619.54l57.78,56H799.38l29-28,28,28h12.87l18.73-18,18.74,18h17.1l33.07-32,32.09,32h14.17L1032,729.77l28.35,28.73h16.29L1111,725l32.31,33.5,31.49-30.79Z" transform="translate(-391.5 -376)"/></g></g><g id="NASR"><path class="cls-2" d="M686.09,564.22l74.56,110.64V564.22h13.76V700H762l-77.54-113.8V700H670.65V564.22Z" transform="translate(-391.5 -376)"/><path class="cls-3" d="M880.78,653.85l-29.94-73.64L802.86,700H788.17L843.4,564.22h15.25L915.18,700H899.37L886,666.86H823.69l5-13Z" transform="translate(-391.5 -376)"/><path class="cls-4" d="M1016.15,564.22v13.94H955.9q-16.74,0-16.73,17.3v13q0,15.45,15.06,15.44h40q26.4,0,26.4,27v19.34q0,29.76-29.19,29.75H926.15V686h63.78q16.92,0,16.92-17.3V652q0-15.43-15.06-15.44H951.62q-26.4,0-26.4-27V594q0-29.75,29.19-29.75Z" transform="translate(-391.5 -376)"/><path class="cls-5" d="M1111.36,564.22q26,0,26,26.22v20.27q0,12.27-6.42,18.78T1111.73,636h-30.87l67.5,64h-18.78l-67.32-64.34v-11h47q14.32,0,14.32-14.13V592.67q0-14.5-14.32-14.51h-54.48V700h-14.14V564.22Z" transform="translate(-391.5 -376)"/></g><g id="R_Window_BL" data-name="R Window BL" class="cls-6"><g id="Rectangle_9" data-name="Rectangle 9"><rect class="cls-7" x="111.5" y="181" width="34.5" height="34.5"/></g></g><g id="R_Window_BR" data-name="R Window BR" class="cls-6"><g id="Rectangle_10" data-name="Rectangle 10"><rect class="cls-8" x="156.5" y="181" width="34.5" height="34.5"/></g></g><g id="R_Window_TL" data-name="R Window TL" class="cls-6"><g id="Rectangle_7" data-name="Rectangle 7"><rect class="cls-9" x="111.5" y="135.5" width="34.5" height="34.5"/></g></g><g id="R_Window_TR" data-name="R Window TR" class="cls-6"><g id="Rectangle_8" data-name="Rectangle 8"><rect class="cls-10" x="156.5" y="135.5" width="34.5" height="34.5"/></g></g><g id="R"><path class="cls-11" d="M447,496.67V758.5h25.5V511.1l71-40.67V440.5Z" transform="translate(-391.5 -376)"/><path class="cls-12" d="M529.65,631.5h109.6v-135l-95.75-56h0v29.93h0l70.25,40.94V606H493.5v25.5l127,127,36.78,0Z" transform="translate(-391.5 -376)"/></g><g id="R_House_Top" data-name="R House Top" class="cls-6"><path class="cls-13" d="M446.53,432.14V397.39h-30v52.12L391.5,464v29l152-87.07V376Z" transform="translate(-391.5 -376)"/><path class="cls-14" d="M543.5,376h0v29.93h0L695.5,493V463.5Z" transform="translate(-391.5 -376)"/></g><g id="Trading_Contracting_LTD_-_ExpressWay_FUTURA" data-name="Trading &amp; Contracting LTD - ExpressWay &amp; FUTURA"><polygon class="cls-15" points="0 412.22 11.49 412.22 11.49 444.89 18.08 444.89 18.08 412.22 29.46 412.22 29.46 406.02 0 406.02 0 412.22"/><path class="cls-15" d="M452.81,801.76a12,12,0,0,0,2.24-7.58,13.71,13.71,0,0,0-.94-5.28,9.89,9.89,0,0,0-2.74-3.83,11.86,11.86,0,0,0-4.22-2.29,17.74,17.74,0,0,0-5.35-.76h-16v38.87h6.59V806.34h8.25l9.08,14.55h7.55l-9.88-15.38A11.18,11.18,0,0,0,452.81,801.76Zm-4.07-7.47A5.7,5.7,0,0,1,446.9,799a7.68,7.68,0,0,1-5,1.53H432.4v-12.4h9.51a7.79,7.79,0,0,1,5,1.51C448.14,790.6,448.74,792.13,448.74,794.29Z" transform="translate(-391.5 -376)"/><path class="cls-15" d="M473.3,782l-14.77,38.87h7l3-8.15H484.9l3,8.15h7L480,782Zm9.37,24.73h-12l6-16.37Z" transform="translate(-391.5 -376)"/><path class="cls-15" d="M524.8,787.21a19.28,19.28,0,0,0-6.41-3.85,22.8,22.8,0,0,0-7.86-1.34H498.92v38.87h11.61a22.2,22.2,0,0,0,7.84-1.37,19.27,19.27,0,0,0,6.37-3.91,18,18,0,0,0,4.31-6.16,21.77,21.77,0,0,0,0-16.16A17.9,17.9,0,0,0,524.8,787.21Zm-14.22,27.53h-5V788.22h5a15.29,15.29,0,0,1,5.28.9,12.6,12.6,0,0,1,4.26,2.58,11.74,11.74,0,0,1,2.83,4.12,14.24,14.24,0,0,1,1,5.58,14.43,14.43,0,0,1-1.05,5.66,12.09,12.09,0,0,1-7.1,6.78A15,15,0,0,1,510.58,814.74Z" transform="translate(-391.5 -376)"/><rect class="cls-15" x="146" y="406.02" width="6.64" height="38.87"/><polygon class="cls-15" points="184.14 432.73 166.86 406.02 160.5 406.02 160.5 444.89 167.09 444.89 167.09 418.41 184.76 444.89 190.72 444.89 190.72 406.02 184.14 406.02 184.14 432.73"/><path class="cls-15" d="M606.61,805.51h8.58c-.15,3.25-1,5.72-2.64,7.36a8.86,8.86,0,0,1-6.59,2.58,9.83,9.83,0,0,1-7.82-3.46c-2-2.32-3-5.85-3-10.48s1-8.17,3-10.51a9.79,9.79,0,0,1,7.82-3.49,9.52,9.52,0,0,1,5.6,1.55,12.6,12.6,0,0,1,3.76,4.42l.27.52,4.85-3.67-.18-.37a16.22,16.22,0,0,0-5.36-6.21,15.32,15.32,0,0,0-8.88-2.44,18.22,18.22,0,0,0-7,1.32,15.25,15.25,0,0,0-5.54,3.9,18.43,18.43,0,0,0-3.63,6.36,26.2,26.2,0,0,0-1.32,8.67,26.5,26.5,0,0,0,1.29,8.62,17.83,17.83,0,0,0,3.63,6.28,15.5,15.5,0,0,0,5.55,3.85A18.32,18.32,0,0,0,606,821.6a17.3,17.3,0,0,0,6.63-1.21,13.32,13.32,0,0,0,4.92-3.5,15.67,15.67,0,0,0,3-5.37,21.62,21.62,0,0,0,1-6.89v-4.94h-15Z" transform="translate(-391.5 -376)"/><path class="cls-15" d="M673.78,807.7c.81-1,1.46-1.78,2-2.49L671.68,801c-.66.86-1.34,1.7-2.06,2.54s-1.47,1.69-2.27,2.57l-.24.26-7.43-9a26.34,26.34,0,0,0,5.43-5.19,8.22,8.22,0,0,0,1.52-4.83,8.3,8.3,0,0,0-2.78-6.42,11,11,0,0,0-14.19.08,9,9,0,0,0-2.72,6.79c0,2.82,1.36,5.67,4.09,8.58l-.38.29-.18.14-2.7,1.84q-5.94,4.08-5.93,10.26a11.46,11.46,0,0,0,3.74,8.71,13.25,13.25,0,0,0,9.29,3.5q6.12,0,11.79-5.85l4.11,5h7.75L670.88,811Q672.56,809.12,673.78,807.7Zm-19.87-23a4.55,4.55,0,0,1,5.77,0,3.43,3.43,0,0,1,1.1,2.64,3.74,3.74,0,0,1-.8,2.43,8.2,8.2,0,0,1-1.23,1.25c-.57.49-1.29,1.06-2.17,1.72l-.5.37a2.35,2.35,0,0,1-.32-.4l-1.55-1.87a5.59,5.59,0,0,1-1.45-3.58A3.23,3.23,0,0,1,653.91,784.66Zm.67,30.92a7.05,7.05,0,0,1-6.76-6.76,5.19,5.19,0,0,1,1.36-3.39,30.19,30.19,0,0,1,5.21-4.25l.35-.24,8.15,9.91Q658.2,815.58,654.58,815.58Z" transform="translate(-391.5 -376)"/><path class="cls-15" d="M713.27,787.51a9.27,9.27,0,0,1,5.51,1.55,13.34,13.34,0,0,1,3.79,4.43l.28.51,4.84-3.67-.18-.37a16.22,16.22,0,0,0-5.36-6.21,15.32,15.32,0,0,0-8.88-2.44,18.51,18.51,0,0,0-7,1.29,14.92,14.92,0,0,0-5.55,3.88,18.29,18.29,0,0,0-3.63,6.33,26.19,26.19,0,0,0-1.32,8.64,26.5,26.5,0,0,0,1.32,8.71,18.14,18.14,0,0,0,3.63,6.3,15.22,15.22,0,0,0,5.52,3.85,18.17,18.17,0,0,0,6.89,1.29,15.7,15.7,0,0,0,14.22-8.18l.24-.39-5-3.6-.28.46a12.89,12.89,0,0,1-4,4.27,9.66,9.66,0,0,1-5.1,1.29,9.78,9.78,0,0,1-7.88-3.46c-2-2.32-3-5.85-3-10.48s1-8.21,3-10.54A9.78,9.78,0,0,1,713.27,787.51Z" transform="translate(-391.5 -376)"/><path class="cls-15" d="M761,786.49a14.5,14.5,0,0,0-5.41-3.89,17.8,17.8,0,0,0-6.84-1.29,17.41,17.41,0,0,0-6.82,1.3,14.27,14.27,0,0,0-5.35,3.88,18.38,18.38,0,0,0-3.49,6.35,27.34,27.34,0,0,0-1.26,8.67,27.06,27.06,0,0,0,1.26,8.64,18,18,0,0,0,3.49,6.3,14.41,14.41,0,0,0,5.35,3.85,17.41,17.41,0,0,0,6.82,1.3,17.8,17.8,0,0,0,6.84-1.29,14.65,14.65,0,0,0,5.41-3.86,17.94,17.94,0,0,0,3.52-6.3,27.35,27.35,0,0,0,1.26-8.64,27.63,27.63,0,0,0-1.26-8.67A18.27,18.27,0,0,0,761,786.49Zm-12.25,29a9.81,9.81,0,0,1-4.2-.88A8.75,8.75,0,0,1,741.3,812a12.72,12.72,0,0,1-2.13-4.35,22.05,22.05,0,0,1-.77-6.12,22.3,22.3,0,0,1,.77-6.18A12.66,12.66,0,0,1,741.3,791a8.88,8.88,0,0,1,3.23-2.6,10,10,0,0,1,4.2-.88,10.3,10.3,0,0,1,4.28.88,9.07,9.07,0,0,1,3.29,2.6,12.6,12.6,0,0,1,2.15,4.34,21.91,21.91,0,0,1,.78,6.18,21.66,21.66,0,0,1-.78,6.12A12.42,12.42,0,0,1,756.3,812a9.07,9.07,0,0,1-3.29,2.6A10.15,10.15,0,0,1,748.73,815.45Z" transform="translate(-391.5 -376)"/><polygon class="cls-15" points="404.83 432.73 387.55 406.02 381.19 406.02 381.19 444.89 387.77 444.89 387.77 418.41 405.44 444.89 411.41 444.89 411.41 406.02 404.83 406.02 404.83 432.73"/><polygon class="cls-15" points="415.66 412.22 427.15 412.22 427.15 444.89 433.74 444.89 433.74 412.22 445.12 412.22 445.12 406.02 415.66 406.02 415.66 412.22"/><path class="cls-15" d="M868.47,801.76a12,12,0,0,0,2.24-7.58,13.71,13.71,0,0,0-.94-5.28,9.89,9.89,0,0,0-2.74-3.83,12,12,0,0,0-4.22-2.29,17.74,17.74,0,0,0-5.35-.76h-16v38.87h6.59V806.34h8.25l9.08,14.55h7.55l-9.89-15.38A11.16,11.16,0,0,0,868.47,801.76Zm-4.07-7.47a5.7,5.7,0,0,1-1.84,4.69,7.68,7.68,0,0,1-5,1.53h-9.51v-12.4h9.51a7.79,7.79,0,0,1,5,1.51C863.8,790.6,864.4,792.13,864.4,794.29Z" transform="translate(-391.5 -376)"/><path class="cls-15" d="M889,782l-14.77,38.87h7l3-8.15h16.43l3,8.15h7L895.62,782Zm9.37,24.73h-12l6-16.37Z" transform="translate(-391.5 -376)"/><path class="cls-15" d="M928.65,787.51a9.25,9.25,0,0,1,5.51,1.55,13.23,13.23,0,0,1,3.79,4.43l.29.51,4.84-3.67-.19-.37a16.14,16.14,0,0,0-5.36-6.21,15.32,15.32,0,0,0-8.88-2.44,18.54,18.54,0,0,0-7,1.29,15,15,0,0,0-5.55,3.88,18.61,18.61,0,0,0-3.63,6.33,26.2,26.2,0,0,0-1.31,8.64,26.51,26.51,0,0,0,1.31,8.71,18.46,18.46,0,0,0,3.63,6.3,15.22,15.22,0,0,0,5.52,3.85,18.17,18.17,0,0,0,6.89,1.29,15.69,15.69,0,0,0,14.22-8.18L943,813l-5-3.6-.28.46a13,13,0,0,1-4,4.27,9.67,9.67,0,0,1-5.11,1.29,9.79,9.79,0,0,1-7.88-3.46c-2-2.32-3-5.85-3-10.48s1-8.21,3-10.54A9.79,9.79,0,0,1,928.65,787.51Z" transform="translate(-391.5 -376)"/><polygon class="cls-15" points="554.43 412.22 565.93 412.22 565.93 444.89 572.51 444.89 572.51 412.22 583.89 412.22 583.89 406.02 554.43 406.02 554.43 412.22"/><rect class="cls-15" x="588.75" y="406.02" width="6.64" height="38.87"/><polygon class="cls-15" points="626.89 432.73 609.61 406.02 603.25 406.02 603.25 444.89 609.83 444.89 609.83 418.41 627.5 444.89 633.47 444.89 633.47 406.02 626.89 406.02 626.89 432.73"/><path class="cls-15" d="M1049.36,805.51h8.57c-.14,3.25-1,5.72-2.63,7.36a8.87,8.87,0,0,1-6.59,2.58,9.81,9.81,0,0,1-7.82-3.46c-2-2.32-3-5.85-3-10.48s1-8.17,3-10.51a9.79,9.79,0,0,1,7.82-3.49,9.47,9.47,0,0,1,5.59,1.55,12.5,12.5,0,0,1,3.76,4.42l.28.52,4.85-3.67L1063,790a16.16,16.16,0,0,0-5.37-6.21,15.28,15.28,0,0,0-8.87-2.44,18.19,18.19,0,0,0-7,1.32,15.29,15.29,0,0,0-5.55,3.9,18.75,18.75,0,0,0-3.63,6.36,29.4,29.4,0,0,0,0,17.29,17.68,17.68,0,0,0,3.63,6.28,15.47,15.47,0,0,0,5.54,3.85,18.37,18.37,0,0,0,7,1.29,17.25,17.25,0,0,0,6.62-1.21,13.16,13.16,0,0,0,4.92-3.5,15.69,15.69,0,0,0,3-5.37,21.62,21.62,0,0,0,1-6.89v-4.94h-15Z" transform="translate(-391.5 -376)"/><polygon class="cls-15" points="700.29 406.02 693.7 406.02 693.7 444.89 719.66 444.89 719.66 438.69 700.29 438.69 700.29 406.02"/><polygon class="cls-15" points="717.28 412.22 728.78 412.22 728.78 444.89 735.36 444.89 735.36 412.22 746.75 412.22 746.75 406.02 717.28 406.02 717.28 412.22"/><path class="cls-15" d="M1173.25,793.29a17.63,17.63,0,0,0-4.28-6.08,19.23,19.23,0,0,0-6.4-3.85,22.85,22.85,0,0,0-7.86-1.34H1143.1v38.87h11.61a22.2,22.2,0,0,0,7.84-1.37,19.27,19.27,0,0,0,6.37-3.91,18.29,18.29,0,0,0,4.31-6.16,21.71,21.71,0,0,0,0-16.16Zm-18.49,21.45h-5V788.22h5a15.19,15.19,0,0,1,5.27.9,12.65,12.65,0,0,1,4.27,2.58,11.74,11.74,0,0,1,2.83,4.12,15.64,15.64,0,0,1,0,11.24,12,12,0,0,1-7.1,6.78A14.94,14.94,0,0,1,1154.76,814.74Z" transform="translate(-391.5 -376)"/></g></svg>