<svg xmlns="http://www.w3.org/2000/svg" viewBox="0 0 400 400"><defs><style>.a{fill:#1da1f2;}.b{fill:#fff;}</style></defs><title>Twitter</title><circle class="a" cx="200" cy="200" r="200"/><path class="b" d="M163.4,305.5c88.7,0,137.2-73.5,137.2-137.2,0-2.1,0-4.2-.1-6.2a98.789,98.789,0,0,0,24.1-25,97.872,97.872,0,0,1-27.7,7.6A48.193,48.193,0,0,0,318.1,118a97.648,97.648,0,0,1-30.6,11.7,48.248,48.248,0,0,0-83.4,33,44.19,44.19,0,0,0,1.3,11A136.793,136.793,0,0,1,106,123.3a48.2,48.2,0,0,0,15,64.3,47.368,47.368,0,0,1-21.8-6v.6a48.273,48.273,0,0,0,38.7,47.3,48.07,48.07,0,0,1-12.7,1.7,46.038,46.038,0,0,1-9.1-.9,48.147,48.147,0,0,0,45,33.5,96.931,96.931,0,0,1-59.9,20.6,87.684,87.684,0,0,1-11.5-.7,134.346,134.346,0,0,0,73.7,21.8"/></svg>